<?xml version="1.0" encoding="UTF-8"?>
<svg width="303px" height="252px" viewBox="0 0 303 252" version="1.1" xmlns="http://www.w3.org/2000/svg" xmlns:xlink="http://www.w3.org/1999/xlink">
    <!-- Generator: Sketch 50.2 (55047) - http://www.bohemiancoding.com/sketch -->
    <title>undraw_superhero_kguv</title>
    <desc>Created with Sketch.</desc>
    <defs>
        <linearGradient x1="50.0040125%" y1="99.9934854%" x2="50.0040125%" y2="0.001584447%" id="linearGradient-1">
            <stop stop-color="#808080" stop-opacity="0.25" offset="0%"></stop>
            <stop stop-color="#808080" stop-opacity="0.12" offset="54%"></stop>
            <stop stop-color="#808080" stop-opacity="0.1" offset="100%"></stop>
        </linearGradient>
        <path d="M7.85325766,16.2098438 C7.85325766,16.2098438 24.7097619,21.2664617 48.3128678,13.6798682 C71.9159737,6.09327462 120.802169,24.6364293 120.802169,24.6364293 C120.802169,24.6364293 159.575129,24.6364293 216.894577,0.19333147 C216.894577,0.19333147 190.764829,25.4797545 209.307983,40.6529416 C227.851138,55.8261287 210.994634,77.7392509 189.078178,86.1691697 C167.161723,94.5990885 165.478406,111.455593 167.161723,127.472105 C168.84504,143.488617 167.161723,128.31543 167.161723,128.31543 C167.161723,128.31543 101.415689,116.515544 84.5558519,156.981821 L1.1099893,25.4830878 C1.1099893,25.4830878 -3.94662864,15.3698519 7.85325766,16.2098438 Z" id="path-2"></path>
    </defs>
    <g id="Page-1" stroke="none" stroke-width="1" fill="none" fill-rule="evenodd">
        <g id="Altcampus-Landing-Page" transform="translate(-954.000000, -1860.000000)">
            <g id="undraw_superhero_kguv" transform="translate(954.000000, 1860.000000)">
                <path d="M293.987167,76.1259331 C293.099531,75.4035273 292.270297,74.6121888 291.507191,73.7592893 C291.507191,73.9626207 291.507191,74.165952 291.507191,74.3692834 C285.450583,68.1893429 285.663914,60.7027484 288.14389,53.8728142 L288.963882,53.5694838 C292.857178,43.2762497 301.780425,34.6429995 301.780425,34.6429995 L300.447105,35.2029941 C300.860434,34.7763316 301.097099,34.5363339 301.097099,34.5363339 C245.764299,58.1394398 207.26467,59.5160932 202.971378,59.5960924 C200.324736,58.5961021 178.51828,50.6561786 157.421816,47.6962071 C150.785214,46.732883 144.195277,46.2495544 138.275334,46.6228841 L131.628732,18.0864924 L131.502066,18.1631583 C131.192069,15.7165152 130.04208,10.3898999 125.835454,7.08659838 C120.218842,2.69997398 124.402135,22.8831128 124.402135,22.8831128 L124.86213,22.6664483 L127.215441,48.0795367 L126.068785,49.0395275 C119.419621,51.0215449 112.557997,52.2043136 105.628982,52.5628269 C106.906676,51.3810615 107.95928,49.977214 108.735619,48.4195334 C109.64188,48.6065306 110.581586,48.3274968 111.238928,47.6762073 C111.457288,47.4464619 111.642416,47.1872834 111.788923,46.9062147 C112.095029,46.4116075 112.341201,45.8823372 112.522249,45.3295632 C113.902236,41.6229323 115.408888,37.9063014 115.85555,33.9796726 C116.302213,30.0530438 115.568886,25.7930848 112.925579,22.8497798 C110.282271,19.9064749 105.462317,18.7864856 102.225682,21.0597971 C101.389023,21.6464581 100.67903,22.4264506 99.7590388,22.8731129 C96.9557324,24.2297665 93.8457624,22.0297877 91.2357875,20.3298041 C88.2024834,18.3531565 84.1958554,16.9365035 81.0525523,18.7298195 C80.0714015,19.3002903 79.2646231,20.1278144 78.7192415,21.1231298 C77.8571568,22.4894705 77.4520729,24.0946299 77.562586,25.706419 C77.7425842,28.296394 79.1392374,30.7063708 81.0092194,32.4930202 C81.6373032,33.1521196 82.4097837,33.656457 83.2658643,33.9663394 C83.4837219,34.0332923 83.7066828,34.0823437 83.9325246,34.1130046 C81.8268295,37.2990641 81.0760119,41.192281 81.845878,44.9329004 L80.6825559,51.9728325 C79.6492325,52.4561612 79.0725714,53.5128177 78.7492412,54.5461411 C73.8859547,54.689473 68.909336,58.0227742 68.909336,58.0227742 L49.7961868,77.1359234 C44.8395679,80.4992243 48.2028689,86.692498 48.2028689,86.692498 L59.3527614,120.142176 L59.9694222,119.68218 C62.2560668,123.848807 68.9693354,135.348696 70.259323,129.615418 C71.8359745,122.668818 66.9260218,116.362212 66.9260218,116.362212 L66.8660224,116.362212 L65.5960346,114.728895 L60.9294129,89.8624674 L66.8326894,83.9991906 L74.7659462,82.8425351 L75.1192762,134.332039 C60.6060827,172.561671 62.3760656,190.081502 62.3760656,190.081502 L75.1192762,237.867708 L76.7459272,237.597711 L77.1392567,239.171029 L77.2825887,239.121029 L77.9892485,242.647662 L76.7159275,242.647662 L75.1226095,247.427616 C75.1226095,247.427616 66.9826879,247.250951 67.1593529,249.020934 C67.3360178,250.790917 71.7626419,253.800888 83.0891994,250.614252 L86.2758353,247.427616 C86.2758353,247.427616 87.8691533,245.834298 84.6825174,242.647662 L84.4558529,242.647662 L83.5725281,236.461055 L84.6825174,236.27439 L75.1192762,188.478184 C83.0825328,181.928247 97.4190613,156.621824 97.4190613,156.621824 C97.4190613,156.621824 111.752257,181.93158 119.718846,188.478184 L110.162272,236.261057 L111.272261,236.447722 L110.40227,242.634329 L110.175605,242.634329 C106.988969,245.820965 108.582287,247.414283 108.582287,247.414283 L111.768923,250.600919 C123.102147,253.787555 127.522105,250.777584 127.69877,249.007601 C127.875434,247.237618 119.735513,247.414283 119.735513,247.414283 L118.142195,242.634329 L116.868874,242.634329 L117.785532,238.047706 L117.948863,237.557711 L119.735513,237.854375 L132.478723,190.068169 C132.478723,190.068169 132.242059,162.458435 119.868845,127.945434 L145.2886,163.591757 L165.40174,195.304785 C166.465875,192.740159 167.775277,190.284332 169.311702,187.971522 L183.864895,174.374986 C200.781399,164.31175 223.364514,163.708423 237.311047,164.538415 L250.170923,165.928401 L256.217531,134.075375 C259.740831,129.538752 264.97078,125.625456 272.57404,122.698818 C288.347222,116.63221 301.573761,103.752334 301.467095,91.2291209 C301.697093,91.4857851 301.920424,91.7424493 302.133755,92.0024468 C302.297087,86.4625002 299.893777,80.9625532 293.987167,76.1259331 Z M119.402183,123.375478 L119.385516,122.788817 L120.118843,123.942139 L119.402183,123.375478 Z" id="Shape" fill="url(#linearGradient-1)" fill-rule="nonzero"></path>
                <path d="M69.6259958,116.665543 L69.5659964,116.665543 L66.7360236,113.015578 L62.1560678,117.595534 L62.6627295,118.355526 L62.0860684,118.495525 C62.0860684,118.495525 71.3293127,136.348686 72.8692979,129.572085 C74.409283,122.795483 69.6259958,116.665543 69.6259958,116.665543 Z" id="Shape" fill="#FDB797" fill-rule="nonzero"></path>
                <path d="M88.9224765,52.8761572 C88.9224765,52.8761572 105.778981,57.9327751 129.382087,50.3461815 C152.985193,42.759588 201.871388,61.3027426 201.871388,61.3027426 C201.871388,61.3027426 240.644348,61.3027426 297.963796,36.8596448 C297.963796,36.8596448 271.834047,62.1460678 290.377202,77.319255 C308.920357,92.4924421 292.063852,114.405564 270.147397,122.835483 C248.230941,131.265402 246.547624,148.121906 248.230941,164.138418 C249.914259,180.154931 248.230941,164.981744 248.230941,164.981744 C248.230941,164.981744 182.484908,153.181857 165.625071,193.648134 L82.1792081,62.1494011 C82.1792081,62.1494011 77.1225902,52.0361653 88.9224765,52.8761572 Z" id="83eae6ee-46c5-4585-a2a2-a187faac01c1" fill="#21396A" fill-rule="nonzero"></path>
                <g id="Clipped" transform="translate(129.998747, 60.666082)">
                    <mask id="mask-3" fill="white">
                        <use xlink:href="#path-2"></use>
                    </mask>
                    <g id="c8ed4358-d450-436c-89b2-67b880a93208"></g>
                    <g id="Group" mask="url(#mask-3)" fill="#000000" fill-rule="nonzero" opacity="0.1">
                        <g transform="translate(-82.999200, -32.666352)" id="Shape">
                            <polygon points="0.153331856 0.0599994219 210.034643 150.938546 222.677854 113.852236"></polygon>
                            <polygon points="12.7965434 47.2628779 129.115423 165.268408 145.97526 152.625196"></polygon>
                        </g>
                    </g>
                </g>
                <g id="Group" opacity="0.1" transform="translate(81.665880, 36.666313)" fill="#000000" fill-rule="nonzero">
                    <path d="M12.1265498,28.1063958 C12.1265498,28.1063958 28.9830541,33.1630138 52.58616,25.5764202 C76.1892659,17.9898267 125.068795,36.5363146 125.068795,36.5363146 C125.068795,36.5363146 156.435159,36.5363146 204.44803,18.7498193 C208.24466,8.70991607 216.944576,0.289997206 216.944576,0.289997206 C159.611795,24.733095 120.852169,24.733095 120.852169,24.733095 C120.852169,24.733095 71.9626399,6.18994036 48.3628673,13.7765339 C24.7630947,21.3631275 7.90325718,16.3065095 7.90325718,16.3065095 C-3.89662912,15.4631843 1.15998882,25.5797535 1.15998882,25.5797535 L4.62995539,31.0497008 C5.35328175,29.2063852 7.36992899,27.7663991 12.1265498,28.1063958 Z" id="Shape"></path>
                    <path d="M209.367983,40.7496073 C208.50177,40.0445231 207.692595,39.2721291 206.948006,38.4396296 C206.754674,43.4162483 208.471325,48.3662006 213.581275,52.5494936 C214.943101,53.6512634 216.191505,54.8862673 217.307906,56.2361248 C217.471238,50.8295102 215.127927,45.4628953 209.367983,40.7496073 Z" id="Shape"></path>
                </g>
                <polygon id="Shape" fill="#FDB797" fill-rule="nonzero" points="119.525515 233.587749 117.972197 241.357674 111.75559 241.357674 113.312241 230.481112"></polygon>
                <polygon id="Shape" fill="#000000" fill-rule="nonzero" opacity="0.1" points="119.39885 234.661072 118.962187 235.974393 112.832246 234.22441 113.268909 233.347752"></polygon>
                <polygon id="Shape" fill="#FDB797" fill-rule="nonzero" points="79.1359041 233.587749 80.6892225 241.357674 86.902496 241.357674 85.3491776 230.481112"></polygon>
                <polygon id="Shape" fill="#000000" fill-rule="nonzero" opacity="0.1" points="79.112571 234.661072 79.5492335 236.411055 85.6825077 234.22441 85.6825077 233.347752"></polygon>
                <path d="M132.675388,22.1631198 C132.675388,22.1631198 132.502057,14.3765281 127.032109,10.0899028 C121.562162,5.80327741 125.655456,25.4864211 125.655456,25.4864211 L132.675388,22.1631198 Z" id="Shape" fill="#FDB797" fill-rule="nonzero"></path>
                <path d="M86.902496,239.804356 L79.1359041,239.804356 L77.5825858,244.470978 C77.5825858,244.470978 69.6426623,244.297646 69.8159939,246.024296 C69.9893256,247.750946 74.3026174,250.690918 85.3491776,247.577614 L88.4558143,244.470978 C88.4558143,244.470978 90.0091327,242.910993 86.902496,239.804356 Z" id="Shape" fill="#333333" fill-rule="nonzero"></path>
                <path d="M111.75559,239.804356 L119.522182,239.804356 L121.0755,244.470978 C121.0755,244.470978 129.015424,244.297646 128.842092,246.024296 C128.66876,247.750946 124.355468,250.690918 113.308908,247.577614 L110.202271,244.470978 C110.202271,244.470978 108.648953,242.910993 111.75559,239.804356 Z" id="Shape" fill="#333333" fill-rule="nonzero"></path>
                <path d="M121.068833,134.168707 L77.5825858,134.168707 C63.4293888,171.451681 65.1560388,188.541517 65.1560388,188.541517 L77.5825858,235.144401 L86.9158292,233.591083 L77.5825858,186.998198 C85.3491776,180.611593 99.3323762,155.928498 99.3323762,155.928498 C99.3323762,155.928498 113.308908,180.59826 121.068833,186.998198 L111.73559,233.601082 L121.068833,235.154401 L133.49538,188.551517 C133.49538,188.551517 135.23203,171.451681 121.068833,134.168707 Z" id="Shape" fill="#333333" fill-rule="nonzero"></path>
                <path d="M77.5825858,134.772035 C77.5825858,134.772035 102.249015,144.105278 121.078833,134.772035 L77.5825858,134.772035 Z" id="Shape" fill="#000000" fill-rule="nonzero" opacity="0.1"></path>
                <path d="M76.2092657,78.3959113 L63.7827187,90.8224582 L68.4493404,115.678885 L62.236067,120.345507 L51.3628384,87.7224881 C51.3628384,87.7224881 48.08287,81.6825463 52.9161568,78.3892447 L71.5593105,59.746091 C71.5593105,59.746091 79.5592334,54.3861426 85.0591804,57.1327828 C90.5591274,59.879423 76.1026,78.1992465 76.1026,78.1992465" id="Shape" fill="#C83434" fill-rule="nonzero"></path>
                <path d="M76.0259341,78.2425794 L77.5792525,134.168707 C77.5792525,134.168707 102.245681,143.501951 121.0755,134.168707 L119.522182,81.5225478 L119.125519,79.7825646 L119.412183,78.9259062 L138.07867,63.4460553 C143.195287,60.6294158 140.49198,54.3094767 140.49198,54.3094767 L132.692055,20.8197994 L126.068785,24.8797603 L128.402096,50.0595176 L115.108891,61.0860781 L114.775561,61.0694116 L80.6992224,59.602759" id="Shape" fill="#C83434" fill-rule="nonzero"></path>
                <rect id="Rectangle-path" fill="#FDB797" fill-rule="nonzero" x="93.2024353" y="51.9194997" width="12.4265469" height="13.9798653" rx="6.21327346"></rect>
                <path d="M93.5990981,57.8894422 C97.594626,59.2847298 102.007189,58.794445 105.598982,56.5561217 C104.70254,54.1021736 102.371588,52.4670476 99.7590388,52.4594945 C96.6351734,52.4701971 94.0016766,54.7916074 93.5990981,57.8894422 Z" id="Shape" fill="#000000" fill-rule="nonzero" opacity="0.1"></path>
                <circle id="Oval" fill="#FDB797" fill-rule="nonzero" cx="97.8623904" cy="44.1529079" r="13.9798653"></circle>
                <path d="M88.1524839,36.4429822 C87.2841151,36.5525317 86.4030486,36.5028305 85.552509,36.2963169 C84.7176422,35.9930104 83.9645594,35.5000835 83.3525302,34.8563308 C81.5258811,33.1030144 80.1658942,30.7630369 79.9892292,28.2363946 C79.8125643,25.7097523 80.9892196,23.0331114 83.1791985,21.7797901 C86.2458356,20.0331403 90.155798,21.413127 93.1124361,23.3397751 C95.655745,25.0064257 98.6923824,27.1430718 101.425689,25.8197512 C102.322347,25.3864221 103.015674,24.6230961 103.832333,24.0531016 C106.988969,21.8364563 111.688924,22.9297791 114.265566,25.7997514 C116.842207,28.6697237 117.565534,32.8230171 117.122205,36.6563135 C116.678876,40.4896099 115.212223,44.1129083 113.865569,47.7262068 C113.656009,48.4391925 113.300741,49.1009207 112.822246,49.6695214 C111.182262,51.3528385 108.112292,50.0461844 107.032302,47.9595379 C105.155653,44.3295729 107.032302,38.0363002 102.599011,35.9196539 C99.0690454,34.2396701 91.9424474,36.1963179 88.1524839,36.4429822 Z" id="Shape" fill="#000000" fill-rule="nonzero" opacity="0.1"></path>
                <path d="M88.3624819,36.0963189 C87.4941131,36.2058684 86.6130466,36.1561672 85.762507,35.9496536 C84.9276402,35.6463471 84.1745574,35.1534202 83.5625282,34.5096675 C81.7358791,32.756351 80.3758922,30.4163736 80.1992272,27.8897313 C80.0225623,25.3630889 81.1992176,22.6864481 83.3891965,21.4331268 C86.4558336,19.686477 90.3657959,21.0664637 93.3224341,22.9931118 C95.8657429,24.6597624 98.9023803,26.7964085 101.635687,25.4730879 C102.532345,25.0397587 103.225672,24.2764327 104.042331,23.7064382 C107.198967,21.4897929 111.898922,22.5831157 114.475564,25.4530881 C117.052205,28.3230604 117.775532,32.4763537 117.332203,36.3096501 C116.888874,40.1429465 115.402221,43.7662449 114.068901,47.3795435 C113.85934,48.0925292 113.504073,48.7542574 113.025578,49.3228581 C111.385593,51.0061752 108.315623,49.6995211 107.235633,47.6128746 C105.358985,43.9829095 107.235633,37.6896368 102.802343,35.5729906 C99.2890433,33.8930068 92.1491121,35.8529879 88.3624819,36.0963189 Z" id="Shape" fill="#333333" fill-rule="nonzero"></path>
                <ellipse id="Oval" fill="#FDB797" fill-rule="nonzero" cx="105.628982" cy="44.1529079" rx="1.55331837" ry="3.10663673"></ellipse>
                <polygon id="Shape" fill="#000000" fill-rule="nonzero" opacity="0.1" points="76.0459339 78.2359128 79.9892292 80.0825617 76.0459339 84.9025152"></polygon>
                <polygon id="Shape" fill="#000000" fill-rule="nonzero" opacity="0.1" points="119.39885 78.9159063 116.772208 81.8358781 118.522191 84.4625195 119.545515 81.5425476"></polygon>
                <path d="M99.5990403,64.6660436 L99.5990403,67.1960192 C99.5990403,67.1960192 81.1492181,63.8260517 80.6792226,58.7661004 L92.8557719,59.6094256 L99.5990403,64.6660436 Z" id="Shape" fill="#21396A" fill-rule="nonzero"></path>
                <path d="M99.5990403,64.6660436 L99.5990403,67.1960192 C99.5990403,67.1960192 118.048863,63.8260517 118.518858,58.7661004 L106.342309,59.6094256 L99.5990403,64.6660436 Z" id="Shape" fill="#21396A" fill-rule="nonzero"></path>
                <polygon id="Shape" fill="#000000" fill-rule="nonzero" opacity="0.1" points="212.361287 92.1191124 273.050702 106.448974 251.134247 115.722218"></polygon>
                <path d="M80.7358887,58.8894326 C80.7358887,58.8894326 80.7358887,53.5928169 84.269188,53.5928169 C87.8024873,53.5928169 91.3324533,64.1893815 91.3324533,64.1893815 L80.7358887,58.8894326 Z" id="Shape" fill="#21396A" fill-rule="nonzero"></path>
                <circle id="Oval" fill="#F55F44" fill-rule="nonzero" opacity="0.5" cx="3.8532962" cy="97.8857235" r="2.31331104"></circle>
                <circle id="Oval" fill="#F55F44" fill-rule="nonzero" opacity="0.5" cx="32.756351" cy="152.2252" r="2.31331104"></circle>
                <circle id="Oval" fill="#F55F44" fill-rule="nonzero" opacity="0.5" cx="279.013978" cy="6.54993689" r="2.31331104"></circle>
                <path d="M167.598385,8.07658884 C166.939365,7.78956241 166.599764,7.05447539 166.808393,6.36660532 C166.824627,6.31577245 166.834699,6.26317433 166.838392,6.20994016 C166.857856,5.89679965 166.66948,5.60801043 166.375054,5.49961842 C166.080627,5.39122641 165.749965,5.48893373 165.561738,5.73994469 C165.529506,5.78320228 165.502643,5.83021226 165.481739,5.87994334 C165.193674,6.5360461 164.461053,6.87373867 163.775089,6.66660243 C163.724256,6.65036851 163.671658,6.64029653 163.618423,6.63660272 C163.305283,6.61713923 163.016494,6.80551464 162.908102,7.09994117 C162.79971,7.39436769 162.897417,7.72503034 163.148428,7.91325708 C163.191686,7.94548959 163.238696,7.97235243 163.288427,7.99325631 C163.941922,8.28372016 164.276457,9.01569497 164.068419,9.69990653 C164.052185,9.7507394 164.042113,9.80333753 164.038419,9.85657169 C164.018956,10.1697122 164.207331,10.4585014 164.501758,10.5668934 C164.796184,10.6752854 165.126847,10.5775781 165.315074,10.3265672 C165.347306,10.2833096 165.374169,10.2362996 165.395073,10.1865685 C165.682099,9.52754867 166.417186,9.18794707 167.105056,9.39657612 C167.155889,9.41281004 167.208487,9.42288202 167.261722,9.42657584 C167.573635,9.44544612 167.861217,9.25816535 167.970097,8.96526344 C168.078977,8.67236152 167.983554,8.34270725 167.73505,8.15325477 C167.692668,8.12241577 167.646796,8.09668274 167.598385,8.07658884 Z" id="Shape" fill="#4D8AF0" fill-rule="nonzero" opacity="0.5"></path>
                <path d="M281.283956,148.738567 C280.624936,148.45154 280.285335,147.716453 280.493964,147.028583 C280.510198,146.97775 280.52027,146.925152 280.523964,146.871918 C280.543427,146.558778 280.355052,146.269988 280.060625,146.161596 C279.766199,146.053204 279.435536,146.150912 279.247309,146.401923 C279.215077,146.44518 279.188214,146.49219 279.16731,146.541921 C278.880284,147.200941 278.145197,147.540543 277.457327,147.331914 C277.406494,147.31568 277.353896,147.305608 277.300661,147.301914 C276.987521,147.28245 276.698732,147.470826 276.59034,147.765252 C276.481948,148.059679 276.579655,148.390342 276.830666,148.578568 C276.873923,148.610801 276.920933,148.637664 276.970665,148.658568 C277.629684,148.945594 277.969286,149.680681 277.760657,150.368551 C277.744423,150.419384 277.734351,150.471982 277.730657,150.525216 C277.711194,150.838357 277.899569,151.127146 278.193996,151.235538 C278.488422,151.34393 278.819085,151.246223 279.007312,150.995212 C279.039544,150.951954 279.066407,150.904944 279.087311,150.855213 C279.374337,150.196193 280.109424,149.856592 280.797294,150.065221 C280.848127,150.081455 280.900725,150.091527 280.953959,150.09522 C281.2671,150.114684 281.555889,149.926308 281.664281,149.631882 C281.772673,149.337455 281.674966,149.006793 281.423955,148.818566 C281.380697,148.786334 281.333687,148.759471 281.283956,148.738567 Z" id="Shape" fill="#4D8AF0" fill-rule="nonzero" opacity="0.5"></path>
                <circle id="Oval" fill="#47E6B1" fill-rule="nonzero" opacity="0.5" cx="195.771447" cy="214.654598" r="2.31331104"></circle>
                <circle id="Oval" fill="#47E6B1" fill-rule="nonzero" opacity="0.5" cx="3.8532962" cy="198.471421" r="2.31331104"></circle>
                <circle id="Oval" fill="#47E6B1" fill-rule="nonzero" opacity="0.5" cx="188.834847" cy="30.8297029" r="2.31331104"></circle>
                <g id="Group" opacity="0.5" fill="#47E6B1" fill-rule="nonzero">
                    <rect id="Rectangle-path" x="2.69664068" y="0" width="1.15665552" height="6.54993689"></rect>
                    <rect id="Rectangle-path" transform="translate(3.274968, 3.274968) rotate(90.000000) translate(-3.274968, -3.274968) " x="2.69664068" y="1.42108547e-14" width="1.15665552" height="6.54993689"></rect>
                </g>
                <g id="Group" opacity="0.5" transform="translate(20.999798, 62.666063)" fill="#47E6B1" fill-rule="nonzero">
                    <rect id="Rectangle-path" x="2.89330545" y="0.149998555" width="1.15665552" height="6.54993689"></rect>
                    <rect id="Rectangle-path" transform="translate(3.471633, 3.424967) rotate(90.000000) translate(-3.471633, -3.424967) " x="2.89330545" y="0.149998555" width="1.15665552" height="6.54993689"></rect>
                </g>
                <g id="Group" opacity="0.5" transform="translate(232.997755, 34.666333)" fill="#47E6B1" fill-rule="nonzero">
                    <rect id="Rectangle-path" x="2.85330584" y="0.0166665061" width="1.15665552" height="6.54993689"></rect>
                    <rect id="Rectangle-path" transform="translate(3.434967, 3.291635) rotate(90.000000) translate(-3.434967, -3.291635) " x="2.85663914" y="0.0166665061" width="1.15665552" height="6.54993689"></rect>
                </g>
            </g>
        </g>
    </g>
</svg>